<?xml version="1.0" standalone="no"?>
<!DOCTYPE svg PUBLIC "-//W3C//DTD SVG 20010904//EN"
 "http://www.w3.org/TR/2001/REC-SVG-20010904/DTD/svg10.dtd">
<svg version="1.0" xmlns="http://www.w3.org/2000/svg"
 width="500.000000pt" height="500.000000pt" viewBox="0 0 500.000000 500.000000"
 preserveAspectRatio="xMidYMid meet">
<metadata>
Created by potrace 1.16, written by Peter Selinger 2001-2019
</metadata>
<g transform="translate(0.000000,500.000000) scale(0.100000,-0.100000)"
fill="#000000" stroke="none">
<path d="M1655 3654 c-11 -2 -45 -9 -75 -15 -159 -31 -319 -165 -400 -334 -51
-106 -70 -198 -70 -335 0 -137 19 -229 72 -338 88 -185 275 -301 486 -302 46
0 59 -5 104 -41 29 -22 82 -56 118 -74 100 -51 166 -122 259 -278 56 -93 183
-261 256 -339 24 -25 64 -58 88 -72 44 -26 217 -94 395 -155 l92 -32 46 21
c58 25 158 96 206 147 70 73 138 203 290 557 49 116 91 213 93 214 12 13 61
-22 142 -101 51 -49 95 -88 97 -86 14 14 36 174 36 258 0 164 -52 287 -150
358 -125 90 -140 104 -140 127 0 25 17 43 59 63 23 12 21 12 -24 7 -27 -3 -90
-23 -140 -44 -106 -44 -145 -54 -184 -45 -41 9 -88 60 -109 117 -9 27 -20 48
-23 48 -8 0 -63 -61 -78 -87 -11 -17 -12 -17 -26 1 -8 10 -19 44 -26 74 -32
156 84 349 269 446 41 21 76 36 78 33 3 -2 -13 -19 -36 -37 -37 -29 -130 -147
-130 -165 0 -4 29 20 65 54 100 93 205 137 390 164 l90 13 -42 22 c-189 98
-443 51 -607 -113 -110 -110 -160 -236 -159 -396 l1 -97 -63 -64 c-84 -87
-107 -146 -113 -293 -2 -60 1 -135 6 -166 13 -68 6 -103 -17 -93 -9 4 -70 10
-137 14 -166 10 -167 11 -99 90 69 81 140 216 166 317 28 106 28 269 0 374
-76 295 -294 489 -549 489 -35 0 -83 -5 -107 -11 -43 -11 -47 -10 -100 25 -30
21 -79 45 -108 55 -54 19 -157 32 -192 25z m-225 -188 c-46 -46 -101 -112
-122 -147 -70 -116 -117 -318 -103 -443 7 -58 52 -206 89 -289 9 -22 12 -36 7
-32 -21 12 -83 129 -109 204 -22 65 -26 93 -26 191 -1 211 75 395 208 502 47
39 129 98 135 98 2 0 -34 -38 -79 -84z m441 -133 c-125 -124 -185 -236 -220
-411 -25 -123 -6 -271 54 -414 53 -127 30 -113 -41 24 -119 232 -70 560 109
742 48 49 160 136 174 136 1 0 -33 -35 -76 -77z m462 -112 c149 -72 240 -270
209 -454 -15 -90 -60 -183 -116 -241 -142 -146 -360 -127 -482 40 -58 82 -76
135 -81 249 -4 85 -2 110 17 165 42 125 116 211 214 250 69 27 173 23 239 -9z
m922 -428 c26 -15 59 -51 78 -88 l16 -30 1 27 c1 74 36 78 78 9 84 -136 84
-269 0 -528 -11 -35 -22 -63 -26 -63 -3 0 -13 7 -22 15 -16 14 -17 9 -23 -67
-11 -145 -59 -259 -150 -355 -58 -61 -85 -68 -94 -23 -6 35 -23 51 -23 23 0
-37 -47 -89 -102 -114 -46 -20 -69 -23 -173 -24 -120 0 -122 0 -197 38 -80 39
-182 126 -279 238 l-51 60 98 -6 99 -6 -61 24 c-106 41 -211 106 -291 181 -39
35 -41 46 -10 46 49 1 162 31 220 60 l60 30 55 -20 c36 -14 97 -24 185 -30 73
-5 148 -14 168 -20 57 -16 150 -81 207 -146 41 -44 52 -53 47 -34 -24 89 -92
182 -157 216 -33 17 -35 34 -9 58 19 17 21 17 60 -14 125 -101 339 13 395 209
24 82 20 88 -22 34 -54 -67 -152 -156 -197 -177 -86 -41 -143 -30 -203 39
-108 122 -61 329 95 422 68 39 171 47 228 16z m491 -207 c17 -18 41 -58 53
-90 21 -57 46 -187 39 -207 -5 -16 -114 86 -164 154 -62 84 -70 157 -21 177
32 12 58 3 93 -34z"/>
<path d="M2205 2938 c-52 -40 -71 -129 -40 -188 18 -35 61 -70 87 -70 25 0 76
29 83 47 3 11 -1 10 -17 -2 -69 -48 -157 41 -128 130 23 70 92 93 143 47 20
-17 20 -17 3 9 -17 27 -55 49 -85 49 -10 0 -31 -10 -46 -22z"/>
</g>
</svg>
